<svg xmlns="http://www.w3.org/2000/svg" width="200" height="200" fill="none" viewBox="0 0 200 200">
  <path fill="#000" d="M0 0h200v200H0z"/>
  <path fill="#374151" d="M88.78 73.132 75.868 60.22c-2.377-2.377-6.472-2.136-9.147.538l-54.879 54.88c-2.674 2.674-2.915 6.769-.538 9.146l12.913 12.913c2.377 2.377 6.472 2.136 9.147-.538l54.879-54.88c2.674-2.674 2.915-6.769.538-9.146Z"/>
  <path fill="#6B7280" d="M139.163 73.132 126.251 60.22c-2.378-2.377-6.473-2.136-9.147.538l-54.879 54.88c-2.674 2.674-2.915 6.769-.538 9.146L74.6 137.696c2.377 2.377 6.472 2.136 9.146-.538l54.879-54.88c2.675-2.674 2.915-6.769.538-9.146Z"/>
  <path fill="#9CA3AF" d="M187.696 73.132 174.783 60.22c-2.377-2.377-6.472-2.136-9.146.538l-54.879 54.88c-2.675 2.674-2.916 6.769-.538 9.146l12.912 12.913c2.377 2.377 6.472 2.136 9.147-.538l54.879-54.88c2.674-2.674 2.915-6.769.538-9.146Z"/>
</svg>
