<svg xmlns="http://www.w3.org/2000/svg" width="200" height="200" fill="none" viewBox="0 0 200 200">
  <g clip-path="url(#a)">
    <path fill="#000" d="M0 0h200v200H0z"/>
    <path fill="#374151" d="m92.74 114.314-8.485-8.486c-1.562-1.562-4.253-1.403-6.01.354l-36.063 36.062c-1.757 1.758-1.916 4.449-.354 6.011l8.486 8.485c1.562 1.562 4.253 1.404 6.01-.353l36.063-36.063c1.757-1.757 1.915-4.448.353-6.01Z"/>
    <path fill="#6B7280" d="m125.848 114.314-8.485-8.486c-1.562-1.562-4.253-1.403-6.01.354L75.29 142.244c-1.757 1.758-1.916 4.449-.353 6.011l8.485 8.485c1.562 1.562 4.253 1.404 6.01-.353l36.063-36.063c1.757-1.757 1.915-4.448.353-6.01Z"/>
    <path fill="#9CA3AF" d="m157.74 114.314-8.485-8.486c-1.562-1.562-4.253-1.403-6.011.354l-36.062 36.062c-1.757 1.758-1.916 4.449-.354 6.011l8.486 8.485c1.562 1.562 4.253 1.404 6.01-.353l36.063-36.063c1.757-1.757 1.915-4.448.353-6.01Z"/>
    <path fill="#374151" d="m77.74 159.314-8.485-8.486c-1.562-1.562-4.253-1.403-6.01.354l-36.063 36.062c-1.757 1.758-1.916 4.449-.354 6.011l8.486 8.485c1.562 1.562 4.253 1.404 6.01-.353l36.063-36.063c1.757-1.757 1.915-4.448.353-6.01Z"/>
    <path fill="#6B7280" d="m110.848 159.314-8.485-8.486c-1.562-1.562-4.253-1.403-6.01.354L60.29 187.244c-1.757 1.758-1.916 4.449-.353 6.011l8.485 8.485c1.562 1.562 4.253 1.404 6.01-.353l36.063-36.063c1.757-1.757 1.915-4.448.353-6.01Z"/>
    <path fill="#9CA3AF" d="m142.74 159.314-8.485-8.486c-1.562-1.562-4.253-1.403-6.011.354l-36.062 36.062c-1.757 1.758-1.916 4.449-.354 6.011l8.486 8.485c1.562 1.562 4.253 1.404 6.01-.353l36.063-36.063c1.757-1.757 1.915-4.448.353-6.01Z"/>
    <path fill="#374151" d="m77.74 159.314-8.485-8.486c-1.562-1.562-4.253-1.403-6.01.354l-36.063 36.062c-1.757 1.758-1.916 4.449-.354 6.011l8.486 8.485c1.562 1.562 4.253 1.404 6.01-.353l36.063-36.063c1.757-1.757 1.915-4.448.353-6.01Z"/>
    <path fill="#6B7280" d="m110.848 159.314-8.485-8.486c-1.562-1.562-4.253-1.403-6.01.354L60.29 187.244c-1.757 1.758-1.916 4.449-.353 6.011l8.485 8.485c1.562 1.562 4.253 1.404 6.01-.353l36.063-36.063c1.757-1.757 1.915-4.448.353-6.01Z"/>
    <path fill="#9CA3AF" d="m142.74 159.314-8.485-8.486c-1.562-1.562-4.253-1.403-6.011.354l-36.062 36.062c-1.757 1.758-1.916 4.449-.354 6.011l8.486 8.485c1.562 1.562 4.253 1.404 6.01-.353l36.063-36.063c1.757-1.757 1.915-4.448.353-6.01Z"/>
    <path fill="#374151" d="m92.74 85.255-8.485 8.485c-1.562 1.562-4.253 1.404-6.01-.353L42.181 57.324c-1.757-1.757-1.916-4.448-.354-6.01l8.486-8.486c1.562-1.562 4.253-1.403 6.01.354l36.063 36.063c1.757 1.757 1.915 4.448.353 6.01Z"/>
    <path fill="#6B7280" d="m125.848 85.255-8.485 8.485c-1.562 1.562-4.253 1.404-6.011-.353L75.29 57.324c-1.758-1.757-1.916-4.448-.354-6.01l8.485-8.486c1.563-1.562 4.253-1.403 6.01.354l36.063 36.062c1.758 1.758 1.916 4.449.354 6.01Z"/>
    <path fill="#9CA3AF" d="m157.74 85.255-8.485 8.485c-1.562 1.562-4.253 1.404-6.011-.353l-36.062-36.063c-1.758-1.757-1.916-4.448-.354-6.01l8.486-8.486c1.562-1.562 4.253-1.403 6.01.354l36.062 36.062c1.758 1.758 1.916 4.449.354 6.01Z"/>
    <path fill="#374151" d="m81.74 41.255-8.485 8.485c-1.562 1.562-4.253 1.404-6.01-.353L31.181 13.324c-1.757-1.757-1.916-4.448-.354-6.01l8.486-8.486c1.562-1.562 4.253-1.403 6.01.354l36.063 36.063c1.757 1.757 1.915 4.448.353 6.01Z"/>
    <path fill="#6B7280" d="m114.848 41.255-8.485 8.485c-1.562 1.562-4.253 1.404-6.011-.353L64.29 13.324c-1.758-1.757-1.916-4.448-.354-6.01l8.485-8.486c1.563-1.562 4.253-1.403 6.01.354l36.063 36.062c1.758 1.758 1.916 4.449.354 6.01Z"/>
    <path fill="#9CA3AF" d="m146.74 41.255-8.485 8.485c-1.562 1.562-4.253 1.404-6.011-.353L96.182 13.324c-1.758-1.757-1.916-4.448-.354-6.01l8.486-8.486c1.562-1.562 4.253-1.403 6.01.354l36.062 36.062c1.758 1.758 1.916 4.449.354 6.01Z"/>
    <path fill="#fff" d="M0 91h200v18H0z"/>
  </g>
  <defs>
    <clipPath id="a">
      <path fill="#fff" d="M0 0h200v200H0z"/>
    </clipPath>
  </defs>
</svg>
